<svg width="307.133251953125px" height="121.39999999999999px" xmlns="http://www.w3.org/2000/svg" viewBox="96.4333740234375 14.300000000000004 307.133251953125 121.39999999999999" style="background: rgba(0, 0, 0, 0);" preserveAspectRatio="xMidYMid"><defs><filter id="editing-vr"><feFlood flood-color="#f00" flood-opacity="0.7" result="c1"></feFlood><feFlood flood-color="#00f" flood-opacity="0.7" result="c3"></feFlood><feComposite operator="in" in="c1" in2="SourceAlpha" result="text-c1"></feComposite><feComposite operator="in" in="c3" in2="SourceAlpha" result="text-c3"></feComposite><feOffset in="text-c1" dx="5" dy="-1" result="text1"></feOffset><feOffset in="text-c3" dx="-5" dy="1" result="text3"></feOffset><feBlend in="SourceGraphic" in2="text1" mode="multiply" result="text4"></feBlend><feBlend in="text4" in2="text3" mode="multiply"></feBlend></filter></defs><g filter="url(#editing-vr)"><g transform="translate(145.48800230026245, 92.5999984741211)"><path d="M20.22-22.46L20.22-22.46L20.22-22.46Q21.12-24.83 21.12-26.88L21.12-26.88L21.12-26.88Q21.12-30.66 18.05-30.66L18.05-30.66L18.05-30.66Q16.45-30.66 15.14-29.22L15.14-29.22L15.14-29.22Q13.82-27.78 13.82-25.98L13.82-25.98L13.82-25.98Q13.82-24.70 14.85-23.68L14.85-23.68L14.85-23.68Q16.32-22.27 20.10-19.97L20.10-19.97L20.10-19.97Q23.87-17.66 25.31-15.78L25.31-15.78L25.31-15.78Q26.75-13.89 26.75-11.30L26.75-11.30L26.75-11.30Q26.75-8.70 25.50-6.34L25.50-6.34L25.50-6.34Q24.26-3.97 22.02-2.30L22.02-2.30L22.02-2.30Q17.22 1.28 9.54 1.28L9.54 1.28L9.54 1.28Q5.38 1.28 2.18-0.90L2.18-0.90L2.18-0.90Q-1.02-3.01-1.02-5.50L-1.02-5.50L-1.02-5.50Q-1.02-8 0.80-9.47L0.80-9.47L0.80-9.47Q2.62-10.94 5.31-10.94L5.31-10.94L5.31-10.94Q8-10.94 9.66-9.92L9.66-9.92L9.66-9.92Q8.83-7.81 8.83-6.40L8.83-6.40L8.83-6.40Q8.83-2.18 12.42-2.18L12.42-2.18L12.42-2.18Q13.95-2.18 14.98-3.14L14.98-3.14L14.98-3.14Q16-4.10 16-5.76L16-5.76L16-5.76Q16-9.02 10.50-12.48L10.50-12.48L10.50-12.48Q6.02-15.42 4.99-16.58L4.99-16.58L4.99-16.58Q3.26-18.62 3.26-21.18L3.26-21.18L3.26-21.18Q3.26-23.74 4.48-26.18L4.48-26.18L4.48-26.18Q5.70-28.61 7.94-30.34L7.94-30.34L7.94-30.34Q12.61-33.92 20.74-33.92L20.74-33.92L20.74-33.92Q24.90-33.92 27.36-32.26L27.36-32.26L27.36-32.26Q29.82-30.59 29.82-27.78L29.82-27.78L29.82-27.78Q29.82-24.96 28.13-23.36L28.13-23.36L28.13-23.36Q26.43-21.76 23.36-21.76L23.36-21.76L23.36-21.76Q21.25-21.76 20.22-22.46ZM46.14 1.28L46.14 1.28L46.14 1.28Q32.06 1.28 32.06-11.97L32.06-11.97L32.06-11.97Q32.06-21.38 37.25-27.46L37.25-27.46L37.25-27.46Q42.75-33.92 52.29-33.92L52.29-33.92L52.29-33.92Q59.20-33.92 62.72-30.72L62.72-30.72L62.72-30.72Q66.24-27.52 66.24-20.80L66.24-20.80L66.24-20.80Q66.24-10.56 60.74-4.61L60.74-4.61L60.74-4.61Q55.36 1.28 46.14 1.28ZM47.81-26.56L47.81-26.56L47.81-26.56Q47.04-24.83 46.43-22.24L46.43-22.24L46.43-22.24Q45.82-19.65 45.06-15.55L45.06-15.55L45.06-15.55Q44.29-11.46 44.29-6.40L44.29-6.40L44.29-6.40Q44.29-4.74 44.83-3.65L44.83-3.65L44.83-3.65Q45.38-2.56 46.85-2.56L46.85-2.56L46.85-2.56Q48.32-2.56 49.25-3.26L49.25-3.26L49.25-3.26Q50.18-3.97 50.88-5.63L50.88-5.63L50.88-5.63Q52.16-8.58 53.18-14.05L53.18-14.05L53.18-14.05Q54.21-19.52 54.30-21.89L54.30-21.89L54.30-21.89Q54.40-24.26 54.40-26.02L54.40-26.02L54.40-26.02Q54.40-27.78 53.89-28.93L53.89-28.93L53.89-28.93Q53.38-30.08 51.94-30.08L51.94-30.08L51.94-30.08Q50.50-30.08 49.54-29.18L49.54-29.18L49.54-29.18Q48.58-28.29 47.81-26.56ZM90.56-2.69L90.56-2.69L90.56-2.69Q87.49 1.28 79.87 1.28L79.87 1.28L79.87 1.28Q75.90 1.28 73.02-1.12L73.02-1.12L73.02-1.12Q70.14-3.52 70.14-6.98L70.14-6.98L70.14-6.98Q70.14-8.90 70.34-9.86L70.34-9.86L74.62-32.64L87.62-33.92L82.94-9.22L82.94-9.22Q82.69-7.81 82.69-6.98L82.69-6.98L82.69-6.98Q82.69-3.26 84.93-3.26L84.93-3.26L84.93-3.26Q87.42-3.26 89.22-6.66L89.22-6.66L89.22-6.66Q89.79-7.74 90.05-9.15L90.05-9.15L94.59-32.64L107.20-33.92L102.46-8.96L102.46-8.96Q102.27-8 102.27-6.98L102.27-6.98L102.27-6.98Q102.27-5.95 102.85-4.83L102.85-4.83L102.85-4.83Q103.42-3.71 105.28-3.46L105.28-3.46L105.28-3.46Q104.90-1.92 103.55-0.90L103.55-0.90L103.55-0.90Q100.74 1.28 97.70 1.28L97.70 1.28L97.70 1.28Q94.66 1.28 92.86 0.19L92.86 0.19L92.86 0.19Q91.07-0.90 90.56-2.69ZM130.69-17.98L130.69-17.98L130.69-17.98Q132.99-22.08 132.99-26.24L132.99-26.24L132.99-26.24Q132.99-28.99 131.01-28.99L131.01-28.99L131.01-28.99Q129.47-28.99 127.87-26.37L127.87-26.37L127.87-26.37Q126.21-23.74 125.70-20.35L125.70-20.35L122.37 0L109.12 1.28L115.65-32.64L126.21-33.92L125.06-27.46L125.06-27.46Q128.19-33.92 135.23-33.92L135.23-33.92L135.23-33.92Q138.94-33.92 140.96-32L140.96-32L140.96-32Q142.98-30.08 142.98-26.14L142.98-26.14L142.98-26.14Q142.98-22.21 140.38-19.71L140.38-19.71L140.38-19.71Q137.79-17.22 133.38-17.22L133.38-17.22L133.38-17.22Q131.46-17.22 130.69-17.98ZM175.42-26.62L175.42-26.62L175.42-26.62Q175.42-23.94 173.18-22.27L173.18-22.27L173.18-22.27Q170.94-20.61 167.30-20.61L167.30-20.61L167.30-20.61Q165.76-20.61 164.86-21.06L164.86-21.06L164.86-21.06Q165.57-22.72 165.79-24.80L165.79-24.80L165.79-24.80Q166.02-26.88 166.02-27.46L166.02-27.46L166.02-27.46Q166.02-30.14 164.16-30.14L164.16-30.14L164.16-30.14Q162.88-30.14 161.44-28.54L161.44-28.54L161.44-28.54Q160-26.94 158.78-24.45L158.78-24.45L158.78-24.45Q156.10-18.69 156.10-12.86L156.10-12.86L156.10-12.86Q156.10-9.66 157.31-8.22L157.31-8.22L157.31-8.22Q158.53-6.78 161.22-6.78L161.22-6.78L161.22-6.78Q164.93-6.78 167.87-9.86L167.87-9.86L167.87-9.86Q168.70-10.82 169.15-11.90L169.15-11.90L169.15-11.90Q171.58-10.62 171.58-7.10L171.58-7.10L171.58-7.10Q171.58-3.52 167.62-1.15L167.62-1.15L167.62-1.15Q163.52 1.28 156.99 1.28L156.99 1.28L156.99 1.28Q144 1.28 144-12.48L144-12.48L144-12.48Q144-22.53 149.70-28.29L149.70-28.29L149.70-28.29Q155.20-33.92 165.31-33.92L165.31-33.92L165.31-33.92Q175.42-33.92 175.42-26.62ZM203.07-10.82L203.07-10.82L203.07-10.82Q204.67-9.73 204.67-7.33L204.67-7.33L204.67-7.33Q204.67-4.93 203.46-3.39L203.46-3.39L203.46-3.39Q202.24-1.86 200.26-0.83L200.26-0.83L200.26-0.83Q196.16 1.28 191.74 1.28L191.74 1.28L191.74 1.28Q187.33 1.28 184.74 0.32L184.74 0.32L184.74 0.32Q182.14-0.64 180.42-2.43L180.42-2.43L180.42-2.43Q177.02-5.82 177.02-12.03L177.02-12.03L177.02-12.03Q177.02-21.70 182.27-27.58L182.27-27.58L182.27-27.58Q187.90-33.92 197.70-33.92L197.70-33.92L197.70-33.92Q203.78-33.92 206.78-31.36L206.78-31.36L206.78-31.36Q209.02-29.44 209.02-26.30L209.02-26.30L209.02-26.30Q209.02-15.04 189.57-15.04L189.57-15.04L189.57-15.04Q189.31-13.38 189.31-11.97L189.31-11.97L189.31-11.97Q189.31-9.02 190.62-7.90L190.62-7.90L190.62-7.90Q191.94-6.78 194.37-6.78L194.37-6.78L194.37-6.78Q196.80-6.78 199.39-7.90L199.39-7.90L199.39-7.90Q201.98-9.02 203.07-10.82ZM190.02-17.79L190.02-17.79L190.02-17.79Q194.56-17.79 197.18-20.61L197.18-20.61L197.18-20.61Q199.81-23.30 199.81-27.58L199.81-27.58L199.81-27.58Q199.81-29.06 199.26-29.86L199.26-29.86L199.26-29.86Q198.72-30.66 197.63-30.66L197.63-30.66L197.63-30.66Q196.54-30.66 195.62-30.24L195.62-30.24L195.62-30.24Q194.69-29.82 193.73-28.42L193.73-28.42L193.73-28.42Q191.36-25.22 190.02-17.79Z" fill="#444"></path></g></g><style>text {
  font-size: 64px;
  font-family: Arial Black;
  dominant-baseline: central;
  text-anchor: middle;
}</style></svg>